<svg width="32" height="32" viewBox="0 0 32 32" fill="none" xmlns="http://www.w3.org/2000/svg">
<path d="M29.6 25.3999C29.6 25.2999 29.6 25.2999 29.6 25.1999C29.6 23.8999 29.5 20.7999 26.6 19.7999C26.6 19.7999 26.6 19.7999 26.5 19.7999C23.5 18.9999 21 17.2999 21 17.2999C20.6 16.9999 20 17.0999 19.8 17.4999C19.5 17.8999 19.6 18.4999 20 18.6999C20.1 18.7999 22.8 20.5999 26.1 21.4999C27.6 22.0999 27.8 23.6999 27.9 25.1999C27.9 25.2999 27.9 25.2999 27.9 25.3999C27.9 25.9999 27.9 26.8999 27.8 27.3999C26.7 27.9999 22.5 30.0999 16.1 30.0999C9.69998 30.0999 5.49998 27.9999 4.39998 27.3999C4.29998 26.8999 4.19998 25.8999 4.29998 25.3999C4.29998 25.2999 4.29998 25.2999 4.29998 25.1999C4.29998 23.6999 4.49998 21.9999 6.09998 21.4999C9.39998 20.6999 12 18.7999 12.2 18.6999C12.6 18.3999 12.7 17.8999 12.4 17.4999C12.1 17.0999 11.6 16.9999 11.2 17.2999C11.2 17.2999 8.69998 18.9999 5.69998 19.7999C5.69998 19.7999 5.69998 19.7999 5.59998 19.7999C2.69998 20.7999 2.59998 23.8999 2.59998 25.1999C2.59998 25.2999 2.59998 25.2999 2.59998 25.3999C2.59998 25.6999 2.59998 27.4999 2.89998 28.3999C2.99998 28.5999 3.09998 28.6999 3.19998 28.7999C3.29998 28.9999 7.99998 31.9999 16 31.9999C24 31.9999 28.7 28.9999 28.9 28.7999C29.1 28.6999 29.2 28.5999 29.2 28.3999C29.6 27.4999 29.6 25.7999 29.6 25.3999Z" fill="black"/>
<path d="M15.9 17.2H16C16 17.2 16 17.2 16.1 17.2C18 17.2 19.6 16.5 20.8 15.2C23.4 12.3 22.9 7.4 22.9 6.9C22.7 3.4 21.1 1.7 19.7 0.9C18.7 0.3 17.5 0 16.1 0C15.4 0 13.9 0.1 12.5 0.9C11.1 1.7 9.39996 3.4 9.19996 6.9C9.19996 7.4 8.69996 12.3 11.3 15.2C12.4 16.5 13.9 17.2 15.9 17.2ZM10.9 7.1C11.1 2.3 14.5 1.8 15.9 1.8C15.9 1.8 15.9 1.8 16 1.8C17.8 1.8 20.8 2.6 21 7.1C21 7.1 21 7.1 21 7.2C21 7.2 21.5 11.8 19.4 14.1C18.6 15 17.5 15.5 16 15.5C14.5 15.5 13.4 15 12.6 14.1C10.5 11.7 10.9 7.2 10.9 7.1Z" fill="black"/>
</svg>
