<svg  viewBox="0 0 42 43" fill="none" xmlns="http://www.w3.org/2000/svg">
<path fill-rule="evenodd" clip-rule="evenodd" d="M20.7339 42.0213C32.0969 42.0213 41.3084 32.8097 41.3084 21.4468C41.3084 10.0838 32.0969 0.872314 20.7339 0.872314C9.37093 0.872314 0.159424 10.0838 0.159424 21.4468C0.159424 32.8097 9.37093 42.0213 20.7339 42.0213Z" fill="#202123"/>
<path fill-rule="evenodd" clip-rule="evenodd" d="M28.4494 15.446H25.4792L24.0191 13.2559C23.8601 13.0174 23.5925 12.8741 23.3058 12.8741H18.1622C17.8756 12.8741 17.6079 13.0174 17.4489 13.2559L15.9889 15.446H13.0186C11.5982 15.446 10.4468 16.5974 10.4468 18.0178V27.4477C10.4468 28.8681 11.5982 30.0195 13.0186 30.0195H28.4494C29.8698 30.0195 31.0212 28.8681 31.0212 27.4477V18.0178C31.0212 16.5974 29.8698 15.446 28.4494 15.446ZM17.1609 16.7789L18.6209 14.5888H22.8469L24.307 16.7789C24.466 17.0174 24.7336 17.1606 25.0203 17.1606H28.4493C28.9228 17.1606 29.3066 17.5444 29.3066 18.0179V27.4479C29.3066 27.9213 28.9228 28.3051 28.4493 28.3051H13.0185C12.545 28.3051 12.1612 27.9213 12.1612 27.4479V18.0179C12.1612 17.5444 12.545 17.1606 13.0185 17.1606H16.4476C16.7342 17.1606 17.0019 17.0174 17.1609 16.7789ZM20.7341 26.5905C18.3668 26.5905 16.4478 24.6714 16.4478 22.3042C16.4478 19.9369 18.3668 18.0178 20.7341 18.0178C23.1014 18.0178 25.0204 19.9369 25.0204 22.3042C25.0204 24.6714 23.1014 26.5905 20.7341 26.5905ZM23.3057 22.3043C23.3057 23.7246 22.1543 24.8761 20.7339 24.8761C19.3135 24.8761 18.1621 23.7246 18.1621 22.3043C18.1621 20.8839 19.3135 19.7324 20.7339 19.7324C22.1543 19.7324 23.3057 20.8839 23.3057 22.3043Z" fill="black"/>
<mask id="mask0" mask-type="alpha" maskUnits="userSpaceOnUse" x="10" y="12" width="22" height="19">
<path fill-rule="evenodd" clip-rule="evenodd" d="M28.4494 15.446H25.4792L24.0191 13.2559C23.8601 13.0174 23.5925 12.8741 23.3058 12.8741H18.1622C17.8756 12.8741 17.6079 13.0174 17.4489 13.2559L15.9889 15.446H13.0186C11.5982 15.446 10.4468 16.5974 10.4468 18.0178V27.4477C10.4468 28.8681 11.5982 30.0195 13.0186 30.0195H28.4494C29.8698 30.0195 31.0212 28.8681 31.0212 27.4477V18.0178C31.0212 16.5974 29.8698 15.446 28.4494 15.446ZM17.1609 16.7789L18.6209 14.5888H22.8469L24.307 16.7789C24.466 17.0174 24.7336 17.1606 25.0203 17.1606H28.4493C28.9228 17.1606 29.3066 17.5444 29.3066 18.0179V27.4479C29.3066 27.9213 28.9228 28.3051 28.4493 28.3051H13.0185C12.545 28.3051 12.1612 27.9213 12.1612 27.4479V18.0179C12.1612 17.5444 12.545 17.1606 13.0185 17.1606H16.4476C16.7342 17.1606 17.0019 17.0174 17.1609 16.7789ZM20.7341 26.5905C18.3668 26.5905 16.4478 24.6714 16.4478 22.3042C16.4478 19.9369 18.3668 18.0178 20.7341 18.0178C23.1014 18.0178 25.0204 19.9369 25.0204 22.3042C25.0204 24.6714 23.1014 26.5905 20.7341 26.5905ZM23.3057 22.3043C23.3057 23.7246 22.1543 24.8761 20.7339 24.8761C19.3135 24.8761 18.1621 23.7246 18.1621 22.3043C18.1621 20.8839 19.3135 19.7324 20.7339 19.7324C22.1543 19.7324 23.3057 20.8839 23.3057 22.3043Z" fill="white"/>
</mask>
<g mask="url(#mask0)">
<rect x="10.4468" y="11.1595" width="20.5745" height="20.5745" fill="#FFD130"/>
</g>
</svg>
