<svg width="32" height="32" viewBox="0 0 32 32" fill="none" xmlns="http://www.w3.org/2000/svg">
<path d="M8.58994 3.89002C9.45409 3.88856 10.31 4.05835 11.1081 4.38962C11.9063 4.72089 12.6308 5.20706 13.24 5.82001L14.61 7.19001L16.02 8.61002L17.44 7.19001L18.76 5.86002C19.9985 4.62544 21.6769 3.93344 23.4256 3.93625C25.1744 3.93907 26.8503 4.63644 28.0849 5.875C29.3195 7.11357 30.0116 8.79185 30.0088 10.5406C30.0059 12.2894 29.3086 13.9654 28.07 15.2L26.75 16.53L16.02 27.28L5.30002 16.53L3.93002 15.17C3.00779 14.2462 2.37968 13.0701 2.12497 11.7898C1.87026 10.5096 2.00035 9.18258 2.49875 7.97614C2.99715 6.7697 3.84161 5.73787 4.92563 5.01069C6.00965 4.2835 7.28461 3.89356 8.58994 3.89002ZM8.58994 1.89002C7.46195 1.8889 6.34496 2.11096 5.30319 2.54346C4.26142 2.97596 3.31551 3.61033 2.51999 4.41001C0.909693 6.02573 0.00546265 8.21389 0.00546265 10.495C0.00546265 12.7762 0.909693 14.9643 2.51999 16.58L3.87997 17.94L16.02 30.11L28.16 17.98L29.49 16.66C30.6868 15.456 31.5011 13.9251 31.8303 12.2597C32.1595 10.5943 31.9891 8.86877 31.3404 7.29996C30.6917 5.73115 29.5937 4.38913 28.1844 3.44257C26.7752 2.49601 25.1176 1.98716 23.42 1.98002C22.2919 1.97779 21.1745 2.19937 20.1325 2.63193C19.0906 3.06449 18.1448 3.69943 17.3499 4.5L16.02 5.78L14.66 4.41001C13.8645 3.61033 12.9186 2.97596 11.8768 2.54346C10.835 2.11096 9.71792 1.8889 8.58994 1.89002Z" fill="black"/>
</svg>
