<svg width="28" height="34" viewBox="0 0 28 34" fill="none" xmlns="http://www.w3.org/2000/svg">
<path d="M24.5295 18.7541C24.2204 18.7541 23.8972 18.6344 23.5881 18.5488C22.9621 18.3808 22.347 18.1578 21.7475 17.8815C21.0957 17.5927 20.3792 17.6077 19.7359 17.9236C19.0926 18.2395 18.568 18.8339 18.263 19.5926L17.9539 20.3626C16.5854 19.4355 15.3278 18.284 14.2165 16.9404C13.1132 15.5869 12.1677 14.0555 11.4064 12.3889L11.9965 11.9098C12.6195 11.5383 13.1076 10.8994 13.367 10.116C13.6264 9.3326 13.6387 8.46004 13.4015 7.66625C13.1785 6.93462 12.9954 6.1858 12.8536 5.42471C12.7833 5.04827 12.7271 4.65472 12.685 4.26117C12.5144 3.05591 11.996 1.96444 11.2232 1.18332C10.4504 0.4022 9.47402 -0.0172373 8.46984 0.000542935H4.25471C3.64918 -0.00638108 3.04953 0.145667 2.49659 0.446335C1.94365 0.747004 1.4504 1.18923 1.05041 1.74292C0.65042 2.29661 0.35309 2.94875 0.178659 3.65495C0.00422735 4.36116 -0.04321 5.10484 0.0395761 5.83538C0.788097 13.0038 3.47635 19.6642 7.67972 24.7646C11.8831 29.865 17.362 33.1145 23.2509 34H23.7848C24.8209 34.0018 25.8213 33.5389 26.5949 32.6996C27.0394 32.2154 27.3945 31.6219 27.6367 30.9582C27.8789 30.2945 28.0027 29.5758 28 28.8496V23.7163C27.9827 22.5278 27.6273 21.3833 26.9944 20.4784C26.3615 19.5734 25.4903 18.964 24.5295 18.7541V18.7541ZM25.232 29.0207C25.2318 29.2637 25.189 29.5038 25.1067 29.725C25.0243 29.9463 24.9042 30.1437 24.7543 30.304C24.5973 30.4691 24.4137 30.5924 24.2153 30.6661C24.0169 30.7397 23.8081 30.7621 23.6022 30.7318C18.3401 29.9101 13.4525 26.9785 9.7101 22.3993C5.96773 17.82 3.58367 11.8539 2.93397 5.44182C2.91161 5.19118 2.9312 4.93762 2.99158 4.69646C3.05195 4.4553 3.15185 4.23155 3.28523 4.03873C3.4169 3.85621 3.57897 3.70992 3.76066 3.60961C3.94236 3.5093 4.13952 3.45726 4.33901 3.45695H8.55414C8.88088 3.4481 9.19993 3.57824 9.45638 3.82496C9.71283 4.07169 9.89064 4.41956 9.95919 4.80872C10.0154 5.27642 10.0856 5.73841 10.1699 6.19471C10.3323 7.0967 10.5483 7.98311 10.8163 8.8469L8.8492 9.95911C8.68101 10.0531 8.52973 10.1866 8.40402 10.352C8.27832 10.5173 8.18068 10.7113 8.11671 10.9228C8.05274 11.1343 8.0237 11.359 8.03125 11.5842C8.03881 11.8093 8.08281 12.0305 8.16073 12.2349C10.1829 17.5098 13.6646 21.7499 17.996 24.2125C18.3381 24.3837 18.7218 24.3837 19.0639 24.2125C19.2391 24.1362 19.4001 24.0182 19.5376 23.8655C19.6751 23.7128 19.7863 23.5283 19.8647 23.3228L20.7359 20.9272C21.4622 21.2436 22.2036 21.5064 22.9558 21.7143C23.3305 21.817 23.7099 21.9026 24.0939 21.971C24.4135 22.0545 24.6991 22.271 24.9017 22.5833C25.1043 22.8956 25.2112 23.2842 25.2039 23.6821L25.232 29.0207Z" fill="#12181D"/>
</svg>
