<svg width="17" height="20" viewBox="0 0 17 20" fill="none" xmlns="http://www.w3.org/2000/svg">
<path d="M16.875 15.875C16.875 15.8125 16.875 15.8125 16.875 15.75C16.875 14.9375 16.8125 13 15 12.375C15 12.375 15 12.375 14.9375 12.375C13.0625 11.875 11.5 10.8125 11.5 10.8125C11.25 10.625 10.875 10.6875 10.75 10.9375C10.5625 11.1875 10.625 11.5625 10.875 11.6875C10.9375 11.75 12.625 12.875 14.6875 13.4375C15.625 13.8125 15.75 14.8125 15.8125 15.75C15.8125 15.8125 15.8125 15.8125 15.8125 15.875C15.8125 16.25 15.8125 16.8125 15.75 17.125C15.0625 17.5 12.4375 18.8125 8.4375 18.8125C4.4375 18.8125 1.8125 17.5 1.125 17.125C1.0625 16.8125 1 16.1875 1.0625 15.875C1.0625 15.8125 1.0625 15.8125 1.0625 15.75C1.0625 14.8125 1.1875 13.75 2.1875 13.4375C4.25 12.9375 5.875 11.75 6 11.6875C6.25 11.5 6.3125 11.1875 6.125 10.9375C5.9375 10.6875 5.625 10.625 5.375 10.8125C5.375 10.8125 3.8125 11.875 1.9375 12.375C1.9375 12.375 1.9375 12.375 1.875 12.375C0.0624999 13 0 14.9375 0 15.75C0 15.8125 0 15.8125 0 15.875C0 16.0625 1.11759e-07 17.1875 0.1875 17.75C0.25 17.875 0.3125 17.9374 0.375 17.9999C0.4375 18.1249 3.375 20 8.375 20C13.375 20 16.3125 18.1249 16.4375 17.9999C16.5625 17.9374 16.625 17.875 16.625 17.75C16.875 17.1875 16.875 16.125 16.875 15.875Z" fill="#A5B0C0"/>
<path d="M8.31244 10.75H8.37494C8.37494 10.75 8.37494 10.75 8.43744 10.75C9.62494 10.75 10.6249 10.3125 11.3749 9.5C12.9999 7.6875 12.6874 4.625 12.6874 4.3125C12.5624 2.125 11.5624 1.0625 10.6874 0.5625C10.0624 0.1875 9.31244 0 8.43744 0C7.99994 0 7.06244 0.0625 6.18744 0.5625C5.31244 1.0625 4.24994 2.125 4.12494 4.3125C4.12494 4.625 3.81244 7.6875 5.43744 9.5C6.12494 10.3125 7.06244 10.75 8.31244 10.75ZM5.18744 4.4375C5.31244 1.4375 7.43744 1.125 8.31244 1.125C8.31244 1.125 8.31244 1.125 8.37494 1.125C9.49994 1.125 11.3749 1.625 11.4999 4.4375C11.4999 4.4375 11.4999 4.4375 11.4999 4.5C11.4999 4.5 11.8124 7.375 10.4999 8.8125C9.99994 9.375 9.31244 9.6875 8.37494 9.6875C7.43744 9.6875 6.74994 9.375 6.24994 8.8125C4.93744 7.3125 5.18744 4.5 5.18744 4.4375Z" fill="#A5B0C0"/>
</svg>
