<svg width="20" height="17" viewBox="0 0 20 17" fill="none" xmlns="http://www.w3.org/2000/svg">
<path fill-rule="evenodd" clip-rule="evenodd" d="M17.3703 1.94866C17.3277 1.92547 17.2817 1.9069 17.2328 1.89379L10.3023 0.0367713C10.2295 0.017279 10.1563 0.0114588 10.0854 0.0177357C10.0145 0.0114588 9.94135 0.017279 9.86861 0.0367713L2.9381 1.89379C2.88918 1.9069 2.84317 1.92547 2.80056 1.94866C2.68915 2.00107 2.59205 2.08684 2.52583 2.20154L0.312527 6.03509C0.282366 6.08733 0.260603 6.14211 0.246821 6.19788C0.1429 6.50732 0.295681 6.84852 0.60198 6.97438L1.42086 7.31086V11.9728C1.42086 11.9958 1.4221 12.0185 1.42453 12.0409C1.40233 12.3054 1.55148 12.565 1.80998 12.6712L9.56264 15.8567C9.67537 15.9672 9.82975 16.0353 10 16.0353C10.0983 16.0353 10.1913 16.0126 10.274 15.9722C10.3258 15.9652 10.3776 15.9515 10.4282 15.9307L18.3609 12.6712C18.6194 12.565 18.7686 12.3054 18.7464 12.0409C18.7488 12.0185 18.75 11.9958 18.75 11.9728V7.31086L19.5689 6.97438C19.8752 6.84853 20.028 6.50733 19.9241 6.19791C19.9103 6.14213 19.8885 6.08734 19.8584 6.03509L17.6451 2.20154C17.5788 2.08683 17.4817 2.00106 17.3703 1.94866ZM5.00729 2.63345L10.0854 4.72006L15.1636 2.63345L10.0854 1.27276L5.00729 2.63345ZM3.33607 3.29816L9.18451 5.70127L7.5754 8.48833L1.72696 6.08522L3.33607 3.29816ZM9.37504 14.4282V7.87127L8.42959 9.50883C8.41816 9.52862 8.40581 9.54755 8.39263 9.5656C8.244 9.84685 7.90311 9.97439 7.60282 9.85101L2.67086 7.82448V11.6735L9.37504 14.4282ZM10.625 14.4984V7.5754L11.7413 9.50883C11.7527 9.52862 11.7651 9.54755 11.7783 9.5656C11.9269 9.84685 12.2678 9.9744 12.5681 9.85101L17.5 7.82448V11.6735L10.625 14.4984ZM10.9864 5.70127L16.8348 3.29816L18.4439 6.08522L12.5955 8.48833L10.9864 5.70127Z" fill="#A5B0C0"/>
</svg>
