<svg width="20" height="16" viewBox="0 0 20 16" fill="none" xmlns="http://www.w3.org/2000/svg">
  <path fill-rule="evenodd" clip-rule="evenodd" d="M0.275557 0.60674C0.375307 0.53935 0.495558 0.5 0.625 0.5H12.5C12.8452 0.5 13.125 0.779823 13.125 1.125V4.25C13.125 4.59518 12.8452 4.875 12.5 4.875C12.1548 4.875 11.875 4.59518 11.875 4.25V1.75L1.25 1.75V14.25L11.875 14.25V11.75C11.875 11.4048 12.1548 11.125 12.5 11.125C12.8452 11.125 13.125 11.4048 13.125 11.75V14.875C13.125 15.2202 12.8452 15.5 12.5 15.5L0.625 15.5C0.301396 15.5 0.0352331 15.2541 0.0032268 14.9389C0.00109305 14.9179 0 14.8966 0 14.875V1.125C0 1.11421 0.000273264 1.10349 0.000813246 1.09284C0.00718363 0.967165 0.0506755 0.851286 0.120542 0.755947C0.163198 0.69774 0.215685 0.647189 0.275557 0.60674Z" fill="#A5B0C0"/>
  <path fill-rule="evenodd" clip-rule="evenodd" d="M16.0669 5.57579C15.8229 5.33171 15.8229 4.93599 16.0669 4.69191C16.311 4.44783 16.7067 4.44783 16.9508 4.69191L19.6025 7.34356C19.6395 7.38058 19.6709 7.42108 19.6967 7.46402C19.8784 7.57333 20 7.77246 20 7.99999C20 8.21263 19.8938 8.40047 19.7316 8.51337C19.7013 8.58135 19.6582 8.64504 19.6025 8.70081L16.9508 11.3525C16.7067 11.5965 16.311 11.5965 16.0669 11.3525C15.8229 11.1084 15.8229 10.7127 16.0669 10.4686L17.9105 8.62499L8.75 8.62499C8.40482 8.62499 8.125 8.34516 8.125 7.99998C8.125 7.65481 8.40482 7.37498 8.75 7.37498L17.8661 7.37498L16.0669 5.57579Z" fill="#A5B0C0"/>
</svg>