<svg width="32" height="32" viewBox="0 0 32 32" fill="none" xmlns="http://www.w3.org/2000/svg">
<path fill-rule="evenodd" clip-rule="evenodd" d="M0.610755 4.07859C0.730393 4.02798 0.861929 4 1 4H20C20.5523 4 21 4.44772 21 5V10C21 10.5523 20.5523 11 20 11C19.4477 11 19 10.5523 19 10V6L2 6V26H19V22C19 21.4477 19.4477 21 20 21C20.5523 21 21 21.4477 21 22V27C21 27.5523 20.5523 28 20 28H1C0.447715 28 0 27.5523 0 27V5C0 4.96548 0.00174889 4.93137 0.00516289 4.89776C0.0197639 4.75398 0.0648215 4.61921 0.133782 4.5C0.242189 4.3126 0.409667 4.16364 0.610755 4.07859Z" fill="black"/>
<path fill-rule="evenodd" clip-rule="evenodd" d="M25.7071 12.1213C25.3166 11.7308 25.3166 11.0976 25.7071 10.7071C26.0976 10.3166 26.7308 10.3166 27.1213 10.7071L31.364 14.9497C31.4232 15.0089 31.4734 15.0738 31.5147 15.1425C31.8055 15.3174 32 15.636 32 16C32 16.3402 31.8301 16.6408 31.5705 16.8214C31.522 16.9302 31.4532 17.0321 31.364 17.1213L27.1213 21.364C26.7308 21.7545 26.0976 21.7545 25.7071 21.364C25.3166 20.9734 25.3166 20.3403 25.7071 19.9498L28.6569 17L14 17C13.4477 17 13 16.5523 13 16C13 15.4477 13.4477 15 14 15L28.5858 15L25.7071 12.1213Z" fill="black"/>
</svg>
