<svg width="32" height="32" viewBox="0 0 32 32" fill="none" xmlns="http://www.w3.org/2000/svg">
<path fill-rule="evenodd" clip-rule="evenodd" d="M16 30C23.732 30 30 23.732 30 16C30 8.26801 23.732 2 16 2C8.26801 2 2 8.26801 2 16C2 23.732 8.26801 30 16 30ZM16 32C24.8366 32 32 24.8366 32 16C32 7.16344 24.8366 0 16 0C7.16344 0 0 7.16344 0 16C0 24.8366 7.16344 32 16 32Z" fill="black"/>
<path d="M14.5824 19.7016C14.5977 18.791 14.701 18.0717 14.8923 17.5438C15.0836 17.0158 15.4739 16.4304 16.0631 15.7876L17.5667 14.2381C18.2095 13.5112 18.5309 12.7306 18.5309 11.8966C18.5309 11.0931 18.3204 10.4657 17.8996 10.0142C17.4787 9.55506 16.8666 9.3255 16.0631 9.3255C15.2826 9.3255 14.6551 9.53211 14.1807 9.94531C13.7063 10.3585 13.4691 10.9133 13.4691 11.6096C13.4691 11.6096 13.3009 12.2851 12.3793 12.2692C11.4577 12.2533 11.3456 11.6096 11.3456 11.6096C11.3609 10.37 11.8009 9.37141 12.6656 8.61387C13.5379 7.84866 14.6704 7.46606 16.0631 7.46606C17.5093 7.46606 18.6342 7.85632 19.4376 8.63682C20.2488 9.40967 20.6543 10.4733 20.6543 11.8277C20.6543 13.1668 20.0345 14.4868 18.7949 15.7876L17.5438 17.0272C16.9852 17.6471 16.7059 18.5385 16.7059 19.7016C16.7059 19.7016 16.7059 20.4357 15.6707 20.4357C14.6356 20.4357 14.5824 19.7016 14.5824 19.7016ZM14.4906 23.3402C14.4906 22.9958 14.5939 22.7089 14.8005 22.4793C15.0148 22.2421 15.3285 22.1235 15.7417 22.1235C16.1549 22.1235 16.4687 22.2421 16.6829 22.4793C16.8972 22.7089 17.0043 22.9958 17.0043 23.3402C17.0043 23.6845 16.8972 23.9714 16.6829 24.201C16.4687 24.4229 16.1549 24.5339 15.7417 24.5339C15.3285 24.5339 15.0148 24.4229 14.8005 24.201C14.5939 23.9714 14.4906 23.6845 14.4906 23.3402Z" fill="black"/>
</svg>
