<svg width="20" height="20" viewBox="0 0 20 20" fill="none" xmlns="http://www.w3.org/2000/svg">
<path fill-rule="evenodd" clip-rule="evenodd" d="M10 18.75C14.8325 18.75 18.75 14.8325 18.75 10C18.75 5.16751 14.8325 1.25 10 1.25C5.16751 1.25 1.25 5.16751 1.25 10C1.25 14.8325 5.16751 18.75 10 18.75ZM10 20C15.5228 20 20 15.5228 20 10C20 4.47715 15.5228 0 10 0C4.47715 0 0 4.47715 0 10C0 15.5228 4.47715 20 10 20Z" fill="#A5B0C0"/>
<path d="M9.11406 12.3135C9.12363 11.7444 9.18819 11.2948 9.30775 10.9648C9.42732 10.6348 9.67123 10.269 10.0395 9.86723L10.9792 8.89878C11.381 8.44444 11.5818 7.95662 11.5818 7.43533C11.5818 6.93317 11.4503 6.541 11.1873 6.25883C10.9242 5.97188 10.5416 5.82841 10.0395 5.82841C9.55166 5.82841 9.1595 5.95754 8.86298 6.21579C8.56647 6.47405 8.41821 6.82078 8.41821 7.25599C8.41821 7.25599 8.31312 7.67816 7.7371 7.66823C7.16109 7.65829 7.09106 7.25599 7.09106 7.25599C7.10063 6.48122 7.37562 5.8571 7.91605 5.38364C8.46125 4.90539 9.16906 4.66626 10.0395 4.66626C10.9434 4.66626 11.6464 4.91017 12.1486 5.39798C12.6555 5.88102 12.909 6.54578 12.909 7.39229C12.909 8.22923 12.5216 9.05421 11.7468 9.86723L10.9649 10.642C10.6158 11.0294 10.4412 11.5865 10.4412 12.3135C10.4412 12.3135 10.4412 12.7723 9.79425 12.7723C9.14729 12.7723 9.11406 12.3135 9.11406 12.3135ZM9.05667 14.5876C9.05667 14.3724 9.12124 14.193 9.25036 14.0495C9.38428 13.9013 9.58036 13.8271 9.83861 13.8271C10.0969 13.8271 10.293 13.9013 10.4269 14.0495C10.5608 14.193 10.6277 14.3724 10.6277 14.5876C10.6277 14.8028 10.5608 14.9821 10.4269 15.1256C10.293 15.2643 10.0969 15.3336 9.83861 15.3336C9.58036 15.3336 9.38428 15.2643 9.25036 15.1256C9.12124 14.9821 9.05667 14.8028 9.05667 14.5876Z" fill="#A5B0C0"/>
</svg>
