<svg width="32" height="32" viewBox="0 0 32 32" fill="none" xmlns="http://www.w3.org/2000/svg">
<path d="M5.08241 11.0262C6.27332 8.39115 8.37567 6.27478 11.0027 5.06638C13.6298 3.85798 16.6048 3.63883 19.3806 4.44924C22.1563 5.25965 24.5461 7.04511 26.1103 9.47718C27.6744 11.9093 28.3078 14.8243 27.8938 17.6862C27.4799 20.5481 26.0465 23.1642 23.8572 25.0534C21.668 26.9425 18.8703 27.9776 15.9786 27.9683C13.087 27.9589 10.296 26.9057 8.11905 25.0025C6.20825 23.3319 4.88333 21.105 4.32052 18.6484" stroke="black" stroke-width="1.84615"/>
<path fill-rule="evenodd" clip-rule="evenodd" d="M15.2194 8C14.5471 8 14.002 8.54504 14.002 9.21739V16.5159C13.9699 17.073 14.3263 17.5975 14.8855 17.7561L21.9126 19.7493C22.5595 19.9328 23.2325 19.5572 23.416 18.9103C23.5995 18.2635 23.2239 17.5904 22.577 17.4069L16.4368 15.6653V9.21739C16.4368 8.54504 15.8917 8 15.2194 8Z" fill="black"/>
<path d="M3.82331 16.3751L1.76582 9.2852L8.99373 11.3485L3.82331 16.3751Z" fill="black"/>
</svg>
