<svg width="30" height="32" viewBox="0 0 30 32" fill="none" xmlns="http://www.w3.org/2000/svg">
<path fill-rule="evenodd" clip-rule="evenodd" d="M6.50001 13.3141H5.08325C2.73604 13.3141 0.833252 15.2169 0.833252 17.5641V27.4808C0.833252 29.828 2.73604 31.7308 5.08325 31.7308H24.9166C27.2638 31.7308 29.1666 29.828 29.1666 27.4808V17.5641C29.1666 15.2169 27.2638 13.3141 24.9166 13.3141H23.5V9.06409C23.5 4.36967 19.6944 0.564087 15 0.564087C10.3056 0.564087 6.50001 4.36967 6.50001 9.06409V13.3141ZM9.33334 13.3141H20.6667V9.06409C20.6667 5.93447 18.1296 3.39742 15 3.39742C11.8704 3.39742 9.33334 5.93447 9.33334 9.06409V13.3141ZM5.08316 16.1475C4.30076 16.1475 3.66649 16.7817 3.66649 17.5641V27.4808C3.66649 28.2632 4.30076 28.8975 5.08316 28.8975H24.9165C25.6989 28.8975 26.3332 28.2632 26.3332 27.4808V17.5641C26.3332 16.7817 25.6989 16.1475 24.9165 16.1475H5.08316Z" fill="#12181D"/>
</svg>
